<svg width="131" height="34" viewBox="0 0 131 34" fill="none" xmlns="http://www.w3.org/2000/svg">
<g clip-path="url(#clip0_63_127)">
<path d="M0.0473633 0H130.953V34H0.0473633V0Z" fill="#FF4747"/>
<path d="M80.209 8.93547C79.9821 8.93547 79.5284 9.0112 79.3015 9.0112C79.0746 9.0112 78.6209 8.93547 78.394 8.93547V20.8998L67.4285 9.0112H66.2185V25.3675C66.4454 25.3675 66.5966 25.2918 66.8235 25.2918C67.2016 25.2161 67.731 25.3675 67.9579 25.3675V13.0246L78.0915 24.0802C78.6209 24.686 78.8477 24.9132 79.1502 25.2918H80.209V8.93547ZM56.7655 10.6014H60.0174C60.7736 10.6014 63.0423 10.9043 63.0423 10.9043C63.0423 10.6771 62.8911 10.2228 62.8911 9.91988C62.8911 9.69271 62.9667 9.23837 62.9667 9.0112H54.3456V25.2918H63.1936C63.1936 25.0646 63.1179 24.686 63.1179 24.4589C63.1179 24.2317 63.1936 23.7016 63.1936 23.3987C62.4373 23.5502 60.3198 23.7016 59.5636 23.7016C58.0511 23.7773 58.278 23.7773 56.7655 23.7773V17.4165H59.0342C59.7905 17.4165 61.7567 17.4923 62.5129 17.568C62.5129 17.3408 62.4373 17.0379 62.4373 16.8108C62.4373 16.6593 62.5129 16.0535 62.5129 15.9021C61.7567 15.9778 60.3198 16.0535 59.5636 16.0535H56.7655V10.6014ZM98.2831 8.93547C98.0563 8.93547 97.6025 9.0112 97.3756 9.0112C97.1488 9.0112 96.695 8.93547 96.4681 8.93547V20.8998L85.5027 9.0112H84.2927V25.3675C84.5195 25.3675 84.6708 25.2918 84.8977 25.2918C85.2758 25.2161 85.8052 25.3675 86.032 25.3675V13.0246L96.1656 24.0802C96.695 24.686 96.9219 24.9132 97.2244 25.2918H98.2831V8.93547ZM104.56 10.6014H107.812C108.568 10.6014 110.837 10.9043 110.837 10.9043C110.837 10.6771 110.685 10.2228 110.685 9.91988C110.685 9.69271 110.761 9.23837 110.761 9.0112H102.14V25.2918H110.988C110.988 25.0646 110.912 24.686 110.912 24.4589C110.912 24.2317 110.988 23.7016 110.988 23.3987C110.232 23.5502 108.114 23.7016 107.358 23.7016C105.846 23.7773 106.072 23.7773 104.56 23.7773V17.4165H106.829C107.585 17.4165 109.551 17.4923 110.307 17.568C110.232 17.3408 110.232 17.0379 110.232 16.8108C110.232 16.6593 110.307 16.0535 110.307 15.9021C109.551 15.9778 108.114 16.0535 107.358 16.0535H104.56V10.6014ZM42.6238 10.2985C43.6069 10.2228 44.9682 10.2228 45.8 10.3742C47.4638 10.6014 48.22 11.5858 48.22 13.1003C48.22 14.7662 47.01 15.8263 45.4219 16.205C44.2875 16.4321 43.0019 16.2807 42.6994 16.2807V10.2985H42.6238ZM40.1282 25.3675C40.5063 25.2918 40.9601 25.2918 41.3382 25.2918C41.5651 25.2918 42.6238 25.3675 42.6238 25.3675V17.568H43.1532L45.0438 19.8397L47.6906 23.2473C48.22 23.9288 48.6737 24.6103 49.2031 25.3675C49.5812 25.3675 50.1862 25.2161 50.64 25.2918C51.0937 25.2918 51.9256 25.3675 52.455 25.3675L49.3544 21.5056L46.1025 17.4165C48.1444 17.0379 50.7156 15.5992 50.7156 12.7974C50.7156 10.3742 49.0519 9.0112 45.4219 9.0112H40.1282V25.3675ZM116.282 10.2985C117.265 10.2228 118.626 10.2228 119.382 10.3742C121.046 10.6014 121.802 11.5858 121.802 13.1003C121.802 14.7662 120.592 15.8263 119.004 16.205C117.87 16.4321 116.584 16.2807 116.282 16.2807V10.2985ZM113.71 25.3675C114.089 25.2918 114.542 25.2918 114.92 25.2918C115.147 25.2918 116.206 25.3675 116.206 25.3675V17.568H116.735L118.626 19.8397L121.273 23.2473C121.802 23.9288 122.18 24.6103 122.785 25.3675C123.163 25.3675 123.768 25.2161 124.222 25.2918C124.676 25.2918 125.508 25.3675 126.037 25.3675L122.937 21.5056L119.685 17.4165C121.727 17.0379 124.298 15.5992 124.298 12.7974C124.298 10.3742 122.634 9.0112 118.928 9.0112H113.71V25.3675ZM3.60181 17.2651C3.60181 9.46554 9.95423 3.10474 17.7435 3.10474C25.5328 3.10474 31.8096 9.46554 31.8096 17.2651C31.8096 25.0646 25.5328 31.3497 17.7435 31.3497C9.95423 31.3497 3.60181 25.0646 3.60181 17.2651Z" fill="#FEFEFE"/>
<path d="M14.4916 9.23826C17.6678 8.4053 18.1215 10.3741 17.9703 11.4343C17.7434 13.6302 17.4409 14.3118 16.9115 16.432C18.9534 13.4031 21.2977 9.01109 24.7008 9.08682C25.4571 9.08682 26.2889 9.46544 26.2889 9.46544C29.1626 11.3585 26.5158 15.2962 24.3227 14.9176C22.9615 14.6904 22.7346 13.9331 22.5833 12.6458C22.3565 12.1158 21.5246 12.2672 21.0709 12.7216C18.6509 15.3719 16.9872 19.0824 16.9872 19.0824C16.9872 19.0824 15.7772 22.187 14.4916 24.7617C14.4916 24.7617 14.1134 25.2917 13.206 25.3674L10.181 25.2917C9.12226 25.216 9.42476 24.5345 9.42476 24.5345C9.42476 24.5345 13.0547 13.6302 13.0547 13.0245C13.1303 12.6458 13.0547 11.6614 12.0716 12.1915C10.786 12.873 10.7104 13.706 9.42476 14.6904C9.42476 14.6904 8.74414 15.069 8.74414 14.236C9.12226 12.9487 11.8447 9.84406 14.4916 9.23826Z" fill="#FF4747"/>
</g>
<defs>
<clipPath id="clip0_63_127">
<rect width="131" height="34" rx="8" fill="white"/>
</clipPath>
</defs>
</svg>
