<svg width="939" height="489" viewBox="0 0 939 489" fill="none" xmlns="http://www.w3.org/2000/svg">
<path d="M193.149 449.078L225.415 375.348H240.307L245.709 472H230.817L226.875 388.926H226.291L189.499 472H187.455L151.393 392.284H150.809L146.867 472H140.443L145.845 375.348H159.423L193.149 449.078ZM259.267 472L302.629 373.012H304.819L348.181 472H332.267L321.317 445.72H277.955L267.151 472H259.267ZM280.145 440.172H318.981L299.709 392.868L280.145 440.172ZM435.796 473.606H433.314L369.366 393.598H368.782V472H362.358V375.348H373.162L428.788 445.574H429.372V375.348H435.796V473.606ZM449.93 472L493.292 373.012H495.482L538.844 472H522.93L511.98 445.72H468.618L457.814 472H449.93ZM470.808 440.172H509.644L490.372 392.868L470.808 440.172ZM611.342 430.39H625.504V468.788C617.134 472.097 607.06 473.752 595.282 473.752C580.974 473.752 568.662 469.956 558.344 462.364C553.283 458.568 549.244 453.604 546.226 447.472C543.209 441.243 541.7 434.381 541.7 426.886C541.7 419.391 542.868 412.675 545.204 406.738C547.54 400.703 550.558 395.691 554.256 391.7C558.052 387.709 562.432 384.303 567.396 381.48C576.643 376.224 586.814 373.596 597.91 373.596C602.193 373.596 606.816 374.083 611.78 375.056C616.744 376.029 620.54 377.051 623.168 378.122L621.708 387.904C608.568 382.356 597.667 379.582 589.004 379.582C579.174 382.113 571.387 387.32 565.644 395.204C559.999 403.088 557.176 412.724 557.176 424.112C557.176 438.323 560.924 449.321 568.418 457.108C575.913 464.797 585.792 468.642 598.056 468.642C602.923 468.642 607.352 468.155 611.342 467.182V430.39ZM648.993 472V375.348H707.539L706.079 385.13L678.923 380.604C674.154 380.604 668.898 381.431 663.155 383.086V418.564H695.567V424.112H663.155V466.744L708.415 462.218L706.955 472H648.993ZM744.873 425.864V472H730.565V375.348H762.101C771.932 375.348 779.962 377.538 786.191 381.918C792.518 386.298 795.681 392.089 795.681 399.292C795.681 406.397 793.151 412.043 788.089 416.228C783.125 420.316 776.361 423.139 767.795 424.696L806.923 472L789.987 474.044L756.115 425.864H744.873ZM744.873 421.484H754.217C771.737 421.484 780.497 414.573 780.497 400.752C780.497 398.416 779.913 395.788 778.745 392.868C776.507 386.736 771.737 382.697 764.437 380.75C757.819 380.75 751.297 381.577 744.873 383.232V421.484Z" fill="white"/>
<ellipse cx="448.451" cy="163.5" rx="160.451" ry="163.5" fill="white"/>
<path d="M341.368 214.01C335.921 214.01 331.478 212.792 328.038 210.355C324.598 207.918 322.448 204.55 321.588 200.25C320.728 195.95 321.301 190.933 323.308 185.2L336.638 148.865C337.355 146.715 337.426 145.282 336.853 144.565C336.28 143.848 335.706 143.49 335.133 143.49C333.7 143.49 331.693 144.278 329.113 145.855C326.676 147.288 324.813 148.578 323.523 149.725C322.52 150.585 321.588 151.302 320.728 151.875C320.011 152.448 319.51 152.735 319.223 152.735C317.216 152.735 316.213 151.875 316.213 150.155C316.213 149.438 316.643 148.435 317.503 147.145C318.363 145.855 319.438 144.278 320.728 142.415C322.878 139.835 325.601 137.112 328.898 134.245C332.195 131.378 335.706 128.727 339.433 126.29C343.16 123.71 346.743 121.632 350.183 120.055C353.623 118.478 356.561 117.69 358.998 117.69C360.861 117.69 362.581 118.335 364.158 119.625C365.735 120.915 366.953 122.42 367.813 124.14C368.673 125.86 368.888 127.293 368.458 128.44L351.473 181.975C350.04 186.848 349.753 190.503 350.613 192.94C351.616 195.233 354.125 196.38 358.138 196.38C361.148 196.38 364.588 195.018 368.458 192.295C372.328 189.428 375.983 185.773 379.423 181.33C383.006 176.887 385.945 172.228 388.238 167.355C390.531 162.338 391.678 157.608 391.678 153.165C391.678 149.582 391.033 146.572 389.743 144.135C388.596 141.555 387.02 139.333 385.013 137.47C383.58 136.037 382.505 134.747 381.788 133.6C381.071 132.453 380.713 131.092 380.713 129.515C380.713 128.225 381.86 126.72 384.153 125C386.59 123.137 389.385 121.488 392.538 120.055C395.835 118.478 398.486 117.69 400.493 117.69C402.786 117.69 404.793 119.123 406.513 121.99C408.376 124.857 409.308 129.372 409.308 135.535C409.308 141.555 408.018 147.718 405.438 154.025C403.001 160.332 399.705 166.567 395.548 172.73C391.535 178.893 386.948 184.627 381.788 189.93C375.338 196.81 368.673 202.543 361.793 207.13C355.056 211.717 348.248 214.01 341.368 214.01ZM431.594 214.225C430.304 214.225 428.656 213.723 426.649 212.72C424.642 211.717 422.922 210.355 421.489 208.635C420.056 206.772 419.339 204.55 419.339 201.97C419.482 201.253 419.697 200.322 419.984 199.175C420.271 198.028 420.629 196.81 421.059 195.52L443.849 141.125C444.422 139.548 444.494 138.33 444.064 137.47C443.777 136.61 442.846 136.18 441.269 136.18C439.836 136.18 437.542 136.682 434.389 137.685C431.379 138.545 428.082 140.767 424.499 144.35C423.926 145.067 423.066 145.425 421.919 145.425C420.916 145.282 420.342 144.565 420.199 143.275C420.199 142.272 420.701 140.91 421.704 139.19C422.707 137.47 423.854 135.75 425.144 134.03C426.434 132.167 427.652 130.805 428.799 129.945C432.382 126.648 436.181 123.853 440.194 121.56C444.207 119.123 449.582 117.905 456.319 117.905C459.616 117.905 462.339 118.837 464.489 120.7C466.639 122.563 467.929 125 468.359 128.01C468.789 131.02 468.287 134.173 466.854 137.47L454.599 165.85C454.169 166.853 454.312 167.427 455.029 167.57C455.746 167.713 456.391 167.283 456.964 166.28C462.267 157.393 467.427 149.295 472.444 141.985C477.604 134.675 482.836 128.87 488.139 124.57C493.442 120.127 499.104 117.905 505.124 117.905C510.571 117.905 514.584 119.553 517.164 122.85C519.744 126.147 520.962 130.303 520.819 135.32C520.676 140.193 519.314 145.138 516.734 150.155L513.724 157.035C513.151 158.038 513.366 158.612 514.369 158.755C515.372 158.898 516.161 158.54 516.734 157.68C521.034 150.513 525.549 143.992 530.279 138.115C535.009 132.095 539.954 127.222 545.114 123.495C550.417 119.768 556.007 117.905 561.884 117.905C567.474 117.905 571.344 119.553 573.494 122.85C575.644 126.003 576.504 130.088 576.074 135.105C575.644 139.978 574.282 145.067 571.989 150.37L557.154 185.2C555.434 189.643 555.721 191.865 558.014 191.865C558.874 191.865 560.021 191.435 561.454 190.575C563.031 189.572 564.679 188.425 566.399 187.135C568.262 185.845 569.911 184.555 571.344 183.265C572.921 181.975 574.139 181.043 574.999 180.47C575.716 179.61 576.432 178.893 577.149 178.32C577.866 177.603 578.511 177.245 579.084 177.245C579.514 177.245 579.944 177.532 580.374 178.105C580.947 178.535 581.234 179.108 581.234 179.825C581.091 181.258 580.732 182.692 580.159 184.125C579.586 185.558 578.654 186.92 577.364 188.21C571.201 195.52 564.106 201.683 556.079 206.7C548.052 211.573 539.954 214.01 531.784 214.01C530.494 214.01 528.846 213.508 526.839 212.505C524.976 211.645 523.399 210.427 522.109 208.85C520.962 207.273 520.747 205.625 521.464 203.905L550.704 139.19C551.851 136.897 552.066 135.105 551.349 133.815C550.632 132.382 549.629 131.593 548.339 131.45C546.332 131.45 544.039 132.812 541.459 135.535C539.022 138.258 536.084 142.057 532.644 146.93C529.921 150.943 526.767 155.888 523.184 161.765C519.601 167.642 515.731 173.948 511.574 180.685C507.561 187.278 503.476 193.943 499.319 200.68C497.742 203.26 495.736 205.553 493.299 207.56C491.006 209.567 488.712 211.143 486.419 212.29C484.126 213.58 482.262 214.225 480.829 214.225C479.539 214.225 478.034 213.652 476.314 212.505C474.737 211.502 473.304 210.283 472.014 208.85C470.867 207.273 470.294 205.768 470.294 204.335C470.294 203.618 470.509 202.4 470.939 200.68C471.369 198.96 472.014 196.953 472.874 194.66L496.094 138.545C497.097 136.108 497.312 134.317 496.739 133.17C496.166 131.88 495.162 131.235 493.729 131.235C492.152 131.235 489.787 132.74 486.634 135.75C483.481 138.617 479.826 142.988 475.669 148.865C473.519 151.732 471.226 155.172 468.789 159.185C466.496 163.198 464.059 167.498 461.479 172.085C459.042 176.528 456.534 181.115 453.954 185.845C451.374 190.575 448.866 195.162 446.429 199.605C443.849 204.335 441.341 207.99 438.904 210.57C436.611 213.007 434.174 214.225 431.594 214.225Z" fill="#4A0000"/>
<g clip-path="url(#clip0_143_208)">
<path d="M361.063 230H534.937V275H361.063V230Z" fill="white"/>
<path d="M467.537 241.827C467.236 241.827 466.633 241.927 466.332 241.927C466.031 241.927 465.428 241.827 465.126 241.827V257.662L450.562 241.927H448.954V263.575C449.256 263.575 449.457 263.475 449.758 263.475C450.26 263.374 450.963 263.575 451.265 263.575V247.239L464.725 261.871C465.428 262.673 465.729 262.974 466.131 263.475H467.537V241.827ZM436.399 244.031H440.718C441.722 244.031 444.736 244.432 444.736 244.432C444.736 244.132 444.535 243.53 444.535 243.129C444.535 242.829 444.635 242.227 444.635 241.927H433.184V263.475H444.937C444.937 263.174 444.836 262.673 444.836 262.372C444.836 262.072 444.937 261.37 444.937 260.969C443.932 261.17 441.12 261.37 440.115 261.37C438.106 261.47 438.408 261.47 436.399 261.47V253.051H439.412C440.416 253.051 443.028 253.152 444.033 253.252C444.033 252.951 443.932 252.55 443.932 252.25C443.932 252.049 444.033 251.247 444.033 251.047C443.028 251.147 441.12 251.247 440.115 251.247H436.399V244.031ZM491.544 241.827C491.243 241.827 490.64 241.927 490.339 241.927C490.037 241.927 489.435 241.827 489.133 241.827V257.662L474.569 241.927H472.961V263.575C473.263 263.575 473.464 263.475 473.765 263.475C474.267 263.374 474.97 263.575 475.272 263.575V247.239L488.732 261.871C489.435 262.673 489.736 262.974 490.138 263.475H491.544V241.827ZM499.881 244.031H504.2C505.205 244.031 508.218 244.432 508.218 244.432C508.218 244.132 508.017 243.53 508.017 243.129C508.017 242.829 508.118 242.227 508.118 241.927H496.667V263.475H508.419C508.419 263.174 508.319 262.673 508.319 262.372C508.319 262.072 508.419 261.37 508.419 260.969C507.415 261.17 504.602 261.37 503.598 261.37C501.589 261.47 501.89 261.47 499.881 261.47V253.051H502.895C503.899 253.051 506.511 253.152 507.515 253.252C507.415 252.951 507.415 252.55 507.415 252.25C507.415 252.049 507.515 251.247 507.515 251.047C506.511 251.147 504.602 251.247 503.598 251.247H499.881V244.031ZM417.615 243.631C418.921 243.53 420.729 243.53 421.834 243.731C424.044 244.031 425.048 245.334 425.048 247.339C425.048 249.544 423.441 250.947 421.331 251.448C419.825 251.749 418.117 251.548 417.715 251.548V243.631H417.615ZM414.3 263.575C414.802 263.475 415.405 263.475 415.907 263.475C416.209 263.475 417.615 263.575 417.615 263.575V253.252H418.318L420.829 256.259L424.345 260.769C425.048 261.671 425.651 262.573 426.354 263.575C426.856 263.575 427.66 263.374 428.262 263.475C428.865 263.475 429.97 263.575 430.673 263.575L426.555 258.463L422.236 253.051C424.948 252.55 428.363 250.646 428.363 246.938C428.363 243.731 426.153 241.927 421.331 241.927H414.3V263.575ZM515.451 243.631C516.756 243.53 518.564 243.53 519.569 243.731C521.779 244.031 522.783 245.334 522.783 247.339C522.783 249.544 521.176 250.947 519.067 251.448C517.56 251.749 515.852 251.548 515.451 251.548V243.631ZM512.035 263.575C512.538 263.475 513.14 263.475 513.642 263.475C513.944 263.475 515.35 263.575 515.35 263.575V253.252H516.053L518.564 256.259L522.08 260.769C522.783 261.671 523.285 262.573 524.089 263.575C524.591 263.575 525.395 263.374 525.997 263.475C526.6 263.475 527.705 263.575 528.408 263.575L524.29 258.463L519.971 253.051C522.683 252.55 526.098 250.646 526.098 246.938C526.098 243.731 523.888 241.927 518.966 241.927H512.035V263.575ZM365.784 252.851C365.784 242.528 374.222 234.109 384.568 234.109C394.914 234.109 403.251 242.528 403.251 252.851C403.251 263.174 394.914 271.492 384.568 271.492C374.222 271.492 365.784 263.174 365.784 252.851Z" fill="#4A0000"/>
<path d="M380.249 242.227C384.468 241.125 385.07 243.731 384.869 245.134C384.568 248.04 384.166 248.942 383.463 251.749C386.175 247.74 389.289 241.927 393.809 242.027C394.814 242.027 395.919 242.528 395.919 242.528C399.735 245.034 396.22 250.245 393.307 249.744C391.499 249.443 391.197 248.441 390.997 246.737C390.695 246.036 389.59 246.236 388.988 246.838C385.773 250.345 383.563 255.256 383.563 255.256C383.563 255.256 381.956 259.365 380.249 262.773C380.249 262.773 379.746 263.475 378.541 263.575L374.523 263.475C373.117 263.374 373.519 262.472 373.519 262.472C373.519 262.472 378.34 248.04 378.34 247.238C378.441 246.737 378.34 245.434 377.034 246.136C375.327 247.038 375.226 248.14 373.519 249.443C373.519 249.443 372.615 249.944 372.615 248.842C373.117 247.138 376.733 243.029 380.249 242.227Z" fill="white"/>
</g>
<defs>
<clipPath id="clip0_143_208">
<rect x="361" y="230" width="174" height="45" rx="8" fill="white"/>
</clipPath>
</defs>
</svg>
