<svg width="431" height="327" viewBox="0 0 431 327" fill="none" xmlns="http://www.w3.org/2000/svg">
<path d="M108.368 214.01C102.921 214.01 98.4779 212.792 95.0379 210.355C91.5979 207.918 89.4479 204.55 88.5879 200.25C87.7279 195.95 88.3012 190.933 90.3079 185.2L103.638 148.865C104.355 146.715 104.426 145.282 103.853 144.565C103.28 143.848 102.706 143.49 102.133 143.49C100.7 143.49 98.6929 144.278 96.1129 145.855C93.6762 147.288 91.8129 148.578 90.5229 149.725C89.5196 150.585 88.5879 151.302 87.7279 151.875C87.0112 152.448 86.5096 152.735 86.2229 152.735C84.2162 152.735 83.2129 151.875 83.2129 150.155C83.2129 149.438 83.6429 148.435 84.5029 147.145C85.3629 145.855 86.4379 144.278 87.7279 142.415C89.8779 139.835 92.6012 137.112 95.8979 134.245C99.1946 131.378 102.706 128.727 106.433 126.29C110.16 123.71 113.743 121.632 117.183 120.055C120.623 118.478 123.561 117.69 125.998 117.69C127.861 117.69 129.581 118.335 131.158 119.625C132.735 120.915 133.953 122.42 134.813 124.14C135.673 125.86 135.888 127.293 135.458 128.44L118.473 181.975C117.04 186.848 116.753 190.503 117.613 192.94C118.616 195.233 121.125 196.38 125.138 196.38C128.148 196.38 131.588 195.018 135.458 192.295C139.328 189.428 142.983 185.773 146.423 181.33C150.006 176.887 152.945 172.228 155.238 167.355C157.531 162.338 158.678 157.608 158.678 153.165C158.678 149.582 158.033 146.572 156.743 144.135C155.596 141.555 154.02 139.333 152.013 137.47C150.58 136.037 149.505 134.747 148.788 133.6C148.071 132.453 147.713 131.092 147.713 129.515C147.713 128.225 148.86 126.72 151.153 125C153.59 123.137 156.385 121.488 159.538 120.055C162.835 118.478 165.486 117.69 167.493 117.69C169.786 117.69 171.793 119.123 173.513 121.99C175.376 124.857 176.308 129.372 176.308 135.535C176.308 141.555 175.018 147.718 172.438 154.025C170.001 160.332 166.705 166.567 162.548 172.73C158.535 178.893 153.948 184.627 148.788 189.93C142.338 196.81 135.673 202.543 128.793 207.13C122.056 211.717 115.248 214.01 108.368 214.01ZM198.594 214.225C197.304 214.225 195.656 213.723 193.649 212.72C191.642 211.717 189.922 210.355 188.489 208.635C187.056 206.772 186.339 204.55 186.339 201.97C186.482 201.253 186.697 200.322 186.984 199.175C187.271 198.028 187.629 196.81 188.059 195.52L210.849 141.125C211.422 139.548 211.494 138.33 211.064 137.47C210.777 136.61 209.846 136.18 208.269 136.18C206.836 136.18 204.542 136.682 201.389 137.685C198.379 138.545 195.082 140.767 191.499 144.35C190.926 145.067 190.066 145.425 188.919 145.425C187.916 145.282 187.342 144.565 187.199 143.275C187.199 142.272 187.701 140.91 188.704 139.19C189.707 137.47 190.854 135.75 192.144 134.03C193.434 132.167 194.652 130.805 195.799 129.945C199.382 126.648 203.181 123.853 207.194 121.56C211.207 119.123 216.582 117.905 223.319 117.905C226.616 117.905 229.339 118.837 231.489 120.7C233.639 122.563 234.929 125 235.359 128.01C235.789 131.02 235.287 134.173 233.854 137.47L221.599 165.85C221.169 166.853 221.312 167.427 222.029 167.57C222.746 167.713 223.391 167.283 223.964 166.28C229.267 157.393 234.427 149.295 239.444 141.985C244.604 134.675 249.836 128.87 255.139 124.57C260.442 120.127 266.104 117.905 272.124 117.905C277.571 117.905 281.584 119.553 284.164 122.85C286.744 126.147 287.962 130.303 287.819 135.32C287.676 140.193 286.314 145.138 283.734 150.155L280.724 157.035C280.151 158.038 280.366 158.612 281.369 158.755C282.372 158.898 283.161 158.54 283.734 157.68C288.034 150.513 292.549 143.992 297.279 138.115C302.009 132.095 306.954 127.222 312.114 123.495C317.417 119.768 323.007 117.905 328.884 117.905C334.474 117.905 338.344 119.553 340.494 122.85C342.644 126.003 343.504 130.088 343.074 135.105C342.644 139.978 341.282 145.067 338.989 150.37L324.154 185.2C322.434 189.643 322.721 191.865 325.014 191.865C325.874 191.865 327.021 191.435 328.454 190.575C330.031 189.572 331.679 188.425 333.399 187.135C335.262 185.845 336.911 184.555 338.344 183.265C339.921 181.975 341.139 181.043 341.999 180.47C342.716 179.61 343.432 178.893 344.149 178.32C344.866 177.603 345.511 177.245 346.084 177.245C346.514 177.245 346.944 177.532 347.374 178.105C347.947 178.535 348.234 179.108 348.234 179.825C348.091 181.258 347.732 182.692 347.159 184.125C346.586 185.558 345.654 186.92 344.364 188.21C338.201 195.52 331.106 201.683 323.079 206.7C315.052 211.573 306.954 214.01 298.784 214.01C297.494 214.01 295.846 213.508 293.839 212.505C291.976 211.645 290.399 210.427 289.109 208.85C287.962 207.273 287.747 205.625 288.464 203.905L317.704 139.19C318.851 136.897 319.066 135.105 318.349 133.815C317.632 132.382 316.629 131.593 315.339 131.45C313.332 131.45 311.039 132.812 308.459 135.535C306.022 138.258 303.084 142.057 299.644 146.93C296.921 150.943 293.767 155.888 290.184 161.765C286.601 167.642 282.731 173.948 278.574 180.685C274.561 187.278 270.476 193.943 266.319 200.68C264.742 203.26 262.736 205.553 260.299 207.56C258.006 209.567 255.712 211.143 253.419 212.29C251.126 213.58 249.262 214.225 247.829 214.225C246.539 214.225 245.034 213.652 243.314 212.505C241.737 211.502 240.304 210.283 239.014 208.85C237.867 207.273 237.294 205.768 237.294 204.335C237.294 203.618 237.509 202.4 237.939 200.68C238.369 198.96 239.014 196.953 239.874 194.66L263.094 138.545C264.097 136.108 264.312 134.317 263.739 133.17C263.166 131.88 262.162 131.235 260.729 131.235C259.152 131.235 256.787 132.74 253.634 135.75C250.481 138.617 246.826 142.988 242.669 148.865C240.519 151.732 238.226 155.172 235.789 159.185C233.496 163.198 231.059 167.498 228.479 172.085C226.042 176.528 223.534 181.115 220.954 185.845C218.374 190.575 215.866 195.162 213.429 199.605C210.849 204.335 208.341 207.99 205.904 210.57C203.611 213.007 201.174 214.225 198.594 214.225Z" fill="#FF4747"/>
<g clip-path="url(#clip0_167_186)">
<path d="M234.537 241.827C234.236 241.827 233.633 241.927 233.332 241.927C233.03 241.927 232.428 241.827 232.126 241.827V257.662L217.561 241.927H215.954V263.575C216.256 263.575 216.456 263.475 216.758 263.475C217.26 263.374 217.963 263.575 218.265 263.575V247.239L231.724 261.871C232.428 262.673 232.729 262.974 233.131 263.475H234.537V241.827ZM203.398 244.031H207.718C208.722 244.031 211.735 244.432 211.735 244.432C211.735 244.132 211.535 243.53 211.535 243.129C211.535 242.829 211.635 242.227 211.635 241.927H200.184V263.475H211.936C211.936 263.174 211.836 262.673 211.836 262.372C211.836 262.072 211.936 261.37 211.936 260.969C210.932 261.17 208.119 261.37 207.115 261.37C205.106 261.47 205.407 261.47 203.398 261.47V253.051H206.412C207.416 253.051 210.028 253.152 211.032 253.252C211.032 252.951 210.932 252.55 210.932 252.25C210.932 252.049 211.032 251.247 211.032 251.047C210.028 251.147 208.119 251.247 207.115 251.247H203.398V244.031ZM258.544 241.827C258.243 241.827 257.64 241.927 257.338 241.927C257.037 241.927 256.434 241.827 256.133 241.827V257.662L241.568 241.927H239.961V263.575C240.262 263.575 240.463 263.475 240.765 263.475C241.267 263.374 241.97 263.575 242.271 263.575V247.239L255.731 261.871C256.434 262.673 256.736 262.974 257.138 263.475H258.544V241.827ZM266.881 244.031H271.2C272.205 244.031 275.218 244.432 275.218 244.432C275.218 244.132 275.017 243.53 275.017 243.129C275.017 242.829 275.118 242.227 275.118 241.927H263.667V263.475H275.419C275.419 263.174 275.319 262.673 275.319 262.372C275.319 262.072 275.419 261.37 275.419 260.969C274.415 261.17 271.602 261.37 270.598 261.37C268.589 261.47 268.89 261.47 266.881 261.47V253.051H269.894C270.899 253.051 273.511 253.152 274.515 253.252C274.415 252.951 274.415 252.55 274.415 252.25C274.415 252.049 274.515 251.247 274.515 251.047C273.511 251.147 271.602 251.247 270.598 251.247H266.881V244.031ZM184.615 243.631C185.921 243.53 187.729 243.53 188.833 243.731C191.043 244.031 192.048 245.334 192.048 247.339C192.048 249.544 190.441 250.947 188.331 251.448C186.825 251.749 185.117 251.548 184.715 251.548V243.631H184.615ZM181.3 263.575C181.802 263.475 182.405 263.475 182.907 263.475C183.208 263.475 184.615 263.575 184.615 263.575V253.252H185.318L187.829 256.259L191.345 260.769C192.048 261.671 192.65 262.573 193.354 263.575C193.856 263.575 194.659 263.374 195.262 263.475C195.865 263.475 196.97 263.575 197.673 263.575L193.555 258.463L189.235 253.051C191.947 252.55 195.363 250.646 195.363 246.938C195.363 243.731 193.153 241.927 188.331 241.927H181.3V263.575ZM282.45 243.631C283.756 243.53 285.564 243.53 286.569 243.731C288.778 244.031 289.783 245.334 289.783 247.339C289.783 249.544 288.176 250.947 286.066 251.448C284.56 251.749 282.852 251.548 282.45 251.548V243.631ZM279.035 263.575C279.537 263.475 280.14 263.475 280.642 263.475C280.944 263.475 282.35 263.575 282.35 263.575V253.252H283.053L285.564 256.259L289.08 260.769C289.783 261.671 290.285 262.573 291.089 263.575C291.591 263.575 292.395 263.374 292.997 263.475C293.6 263.475 294.705 263.575 295.408 263.575L291.29 258.463L286.97 253.051C289.682 252.55 293.098 250.646 293.098 246.938C293.098 243.731 290.888 241.927 285.966 241.927H279.035V263.575ZM132.784 252.851C132.784 242.528 141.222 234.109 151.568 234.109C161.914 234.109 170.251 242.528 170.251 252.851C170.251 263.174 161.914 271.492 151.568 271.492C141.222 271.492 132.784 263.174 132.784 252.851Z" fill="#FF4747"/>
<path d="M147.248 242.227C151.467 241.125 152.07 243.731 151.869 245.134C151.568 248.04 151.166 248.942 150.463 251.749C153.175 247.74 156.289 241.927 160.809 242.027C161.813 242.027 162.918 242.528 162.918 242.528C166.735 245.034 163.219 250.245 160.306 249.744C158.498 249.443 158.197 248.441 157.996 246.737C157.695 246.036 156.59 246.236 155.987 246.838C152.773 250.345 150.563 255.256 150.563 255.256C150.563 255.256 148.956 259.365 147.248 262.773C147.248 262.773 146.746 263.475 145.541 263.575L141.523 263.475C140.117 263.374 140.518 262.472 140.518 262.472C140.518 262.472 145.34 248.04 145.34 247.238C145.44 246.737 145.34 245.434 144.034 246.136C142.326 247.038 142.226 248.14 140.518 249.443C140.518 249.443 139.614 249.944 139.614 248.842C140.117 247.138 143.733 243.029 147.248 242.227Z" fill="#FBFBFD"/>
</g>
<defs>
<clipPath id="clip0_167_186">
<rect x="128" y="230" width="174" height="45" rx="8" fill="white"/>
</clipPath>
</defs>
</svg>
