<svg width="431" height="327" viewBox="0 0 431 327" fill="none" xmlns="http://www.w3.org/2000/svg">
<ellipse cx="215.451" cy="163.5" rx="160.451" ry="163.5" fill="white"/>
<path d="M108.368 198.01C102.921 198.01 98.4779 196.792 95.0379 194.355C91.5979 191.918 89.4479 188.55 88.5879 184.25C87.7279 179.95 88.3012 174.933 90.3079 169.2L103.638 132.865C104.355 130.715 104.426 129.282 103.853 128.565C103.28 127.848 102.706 127.49 102.133 127.49C100.7 127.49 98.6929 128.278 96.1129 129.855C93.6762 131.288 91.8129 132.578 90.5229 133.725C89.5196 134.585 88.5879 135.302 87.7279 135.875C87.0112 136.448 86.5096 136.735 86.2229 136.735C84.2162 136.735 83.2129 135.875 83.2129 134.155C83.2129 133.438 83.6429 132.435 84.5029 131.145C85.3629 129.855 86.4379 128.278 87.7279 126.415C89.8779 123.835 92.6012 121.112 95.8979 118.245C99.1946 115.378 102.706 112.727 106.433 110.29C110.16 107.71 113.743 105.632 117.183 104.055C120.623 102.478 123.561 101.69 125.998 101.69C127.861 101.69 129.581 102.335 131.158 103.625C132.735 104.915 133.953 106.42 134.813 108.14C135.673 109.86 135.888 111.293 135.458 112.44L118.473 165.975C117.04 170.848 116.753 174.503 117.613 176.94C118.616 179.233 121.125 180.38 125.138 180.38C128.148 180.38 131.588 179.018 135.458 176.295C139.328 173.428 142.983 169.773 146.423 165.33C150.006 160.887 152.945 156.228 155.238 151.355C157.531 146.338 158.678 141.608 158.678 137.165C158.678 133.582 158.033 130.572 156.743 128.135C155.596 125.555 154.02 123.333 152.013 121.47C150.58 120.037 149.505 118.747 148.788 117.6C148.071 116.453 147.713 115.092 147.713 113.515C147.713 112.225 148.86 110.72 151.153 109C153.59 107.137 156.385 105.488 159.538 104.055C162.835 102.478 165.486 101.69 167.493 101.69C169.786 101.69 171.793 103.123 173.513 105.99C175.376 108.857 176.308 113.372 176.308 119.535C176.308 125.555 175.018 131.718 172.438 138.025C170.001 144.332 166.705 150.567 162.548 156.73C158.535 162.893 153.948 168.627 148.788 173.93C142.338 180.81 135.673 186.543 128.793 191.13C122.056 195.717 115.248 198.01 108.368 198.01ZM198.594 198.225C197.304 198.225 195.656 197.723 193.649 196.72C191.642 195.717 189.922 194.355 188.489 192.635C187.056 190.772 186.339 188.55 186.339 185.97C186.482 185.253 186.697 184.322 186.984 183.175C187.271 182.028 187.629 180.81 188.059 179.52L210.849 125.125C211.422 123.548 211.494 122.33 211.064 121.47C210.777 120.61 209.846 120.18 208.269 120.18C206.836 120.18 204.542 120.682 201.389 121.685C198.379 122.545 195.082 124.767 191.499 128.35C190.926 129.067 190.066 129.425 188.919 129.425C187.916 129.282 187.342 128.565 187.199 127.275C187.199 126.272 187.701 124.91 188.704 123.19C189.707 121.47 190.854 119.75 192.144 118.03C193.434 116.167 194.652 114.805 195.799 113.945C199.382 110.648 203.181 107.853 207.194 105.56C211.207 103.123 216.582 101.905 223.319 101.905C226.616 101.905 229.339 102.837 231.489 104.7C233.639 106.563 234.929 109 235.359 112.01C235.789 115.02 235.287 118.173 233.854 121.47L221.599 149.85C221.169 150.853 221.312 151.427 222.029 151.57C222.746 151.713 223.391 151.283 223.964 150.28C229.267 141.393 234.427 133.295 239.444 125.985C244.604 118.675 249.836 112.87 255.139 108.57C260.442 104.127 266.104 101.905 272.124 101.905C277.571 101.905 281.584 103.553 284.164 106.85C286.744 110.147 287.962 114.303 287.819 119.32C287.676 124.193 286.314 129.138 283.734 134.155L280.724 141.035C280.151 142.038 280.366 142.612 281.369 142.755C282.372 142.898 283.161 142.54 283.734 141.68C288.034 134.513 292.549 127.992 297.279 122.115C302.009 116.095 306.954 111.222 312.114 107.495C317.417 103.768 323.007 101.905 328.884 101.905C334.474 101.905 338.344 103.553 340.494 106.85C342.644 110.003 343.504 114.088 343.074 119.105C342.644 123.978 341.282 129.067 338.989 134.37L324.154 169.2C322.434 173.643 322.721 175.865 325.014 175.865C325.874 175.865 327.021 175.435 328.454 174.575C330.031 173.572 331.679 172.425 333.399 171.135C335.262 169.845 336.911 168.555 338.344 167.265C339.921 165.975 341.139 165.043 341.999 164.47C342.716 163.61 343.432 162.893 344.149 162.32C344.866 161.603 345.511 161.245 346.084 161.245C346.514 161.245 346.944 161.532 347.374 162.105C347.947 162.535 348.234 163.108 348.234 163.825C348.091 165.258 347.732 166.692 347.159 168.125C346.586 169.558 345.654 170.92 344.364 172.21C338.201 179.52 331.106 185.683 323.079 190.7C315.052 195.573 306.954 198.01 298.784 198.01C297.494 198.01 295.846 197.508 293.839 196.505C291.976 195.645 290.399 194.427 289.109 192.85C287.962 191.273 287.747 189.625 288.464 187.905L317.704 123.19C318.851 120.897 319.066 119.105 318.349 117.815C317.632 116.382 316.629 115.593 315.339 115.45C313.332 115.45 311.039 116.812 308.459 119.535C306.022 122.258 303.084 126.057 299.644 130.93C296.921 134.943 293.767 139.888 290.184 145.765C286.601 151.642 282.731 157.948 278.574 164.685C274.561 171.278 270.476 177.943 266.319 184.68C264.742 187.26 262.736 189.553 260.299 191.56C258.006 193.567 255.712 195.143 253.419 196.29C251.126 197.58 249.262 198.225 247.829 198.225C246.539 198.225 245.034 197.652 243.314 196.505C241.737 195.502 240.304 194.283 239.014 192.85C237.867 191.273 237.294 189.768 237.294 188.335C237.294 187.618 237.509 186.4 237.939 184.68C238.369 182.96 239.014 180.953 239.874 178.66L263.094 122.545C264.097 120.108 264.312 118.317 263.739 117.17C263.166 115.88 262.162 115.235 260.729 115.235C259.152 115.235 256.787 116.74 253.634 119.75C250.481 122.617 246.826 126.988 242.669 132.865C240.519 135.732 238.226 139.172 235.789 143.185C233.496 147.198 231.059 151.498 228.479 156.085C226.042 160.528 223.534 165.115 220.954 169.845C218.374 174.575 215.866 179.162 213.429 183.605C210.849 188.335 208.341 191.99 205.904 194.57C203.611 197.007 201.174 198.225 198.594 198.225Z" fill="#429E9D"/>
<g clip-path="url(#clip0_167_186)">
<path d="M234.537 235.827C234.236 235.827 233.633 235.927 233.332 235.927C233.03 235.927 232.428 235.827 232.126 235.827V251.662L217.561 235.927H215.954V257.575C216.256 257.575 216.456 257.475 216.758 257.475C217.26 257.374 217.963 257.575 218.265 257.575V241.239L231.724 255.871C232.428 256.673 232.729 256.974 233.131 257.475H234.537V235.827ZM203.398 238.031H207.718C208.722 238.031 211.735 238.432 211.735 238.432C211.735 238.132 211.535 237.53 211.535 237.129C211.535 236.829 211.635 236.227 211.635 235.927H200.184V257.475H211.936C211.936 257.174 211.836 256.673 211.836 256.372C211.836 256.072 211.936 255.37 211.936 254.969C210.932 255.17 208.119 255.37 207.115 255.37C205.106 255.47 205.407 255.47 203.398 255.47V247.051H206.412C207.416 247.051 210.028 247.152 211.032 247.252C211.032 246.951 210.932 246.55 210.932 246.25C210.932 246.049 211.032 245.247 211.032 245.047C210.028 245.147 208.119 245.247 207.115 245.247H203.398V238.031ZM258.544 235.827C258.243 235.827 257.64 235.927 257.338 235.927C257.037 235.927 256.434 235.827 256.133 235.827V251.662L241.568 235.927H239.961V257.575C240.262 257.575 240.463 257.475 240.765 257.475C241.267 257.374 241.97 257.575 242.271 257.575V241.239L255.731 255.871C256.434 256.673 256.736 256.974 257.138 257.475H258.544V235.827ZM266.881 238.031H271.2C272.205 238.031 275.218 238.432 275.218 238.432C275.218 238.132 275.017 237.53 275.017 237.129C275.017 236.829 275.118 236.227 275.118 235.927H263.667V257.475H275.419C275.419 257.174 275.319 256.673 275.319 256.372C275.319 256.072 275.419 255.37 275.419 254.969C274.415 255.17 271.602 255.37 270.598 255.37C268.589 255.47 268.89 255.47 266.881 255.47V247.051H269.894C270.899 247.051 273.51 247.152 274.515 247.252C274.415 246.951 274.415 246.55 274.415 246.25C274.415 246.049 274.515 245.247 274.515 245.047C273.51 245.147 271.602 245.247 270.598 245.247H266.881V238.031ZM184.615 237.631C185.921 237.53 187.729 237.53 188.833 237.731C191.043 238.031 192.048 239.334 192.048 241.339C192.048 243.544 190.441 244.947 188.331 245.448C186.825 245.749 185.117 245.548 184.715 245.548V237.631H184.615ZM181.3 257.575C181.802 257.475 182.405 257.475 182.907 257.475C183.208 257.475 184.615 257.575 184.615 257.575V247.252H185.318L187.829 250.259L191.345 254.769C192.048 255.671 192.65 256.573 193.354 257.575C193.856 257.575 194.659 257.374 195.262 257.475C195.865 257.475 196.97 257.575 197.673 257.575L193.555 252.463L189.235 247.051C191.947 246.55 195.363 244.646 195.363 240.938C195.363 237.731 193.153 235.927 188.331 235.927H181.3V257.575ZM282.45 237.631C283.756 237.53 285.564 237.53 286.569 237.731C288.778 238.031 289.783 239.334 289.783 241.339C289.783 243.544 288.176 244.947 286.066 245.448C284.56 245.749 282.852 245.548 282.45 245.548V237.631ZM279.035 257.575C279.537 257.475 280.14 257.475 280.642 257.475C280.944 257.475 282.35 257.575 282.35 257.575V247.252H283.053L285.564 250.259L289.08 254.769C289.783 255.671 290.285 256.573 291.089 257.575C291.591 257.575 292.395 257.374 292.997 257.475C293.6 257.475 294.705 257.575 295.408 257.575L291.29 252.463L286.97 247.051C289.682 246.55 293.098 244.646 293.098 240.938C293.098 237.731 290.888 235.927 285.966 235.927H279.035V257.575ZM132.784 246.851C132.784 236.528 141.222 228.109 151.568 228.109C161.914 228.109 170.251 236.528 170.251 246.851C170.251 257.174 161.914 265.492 151.568 265.492C141.222 265.492 132.784 257.174 132.784 246.851Z" fill="#429E9D"/>
<path d="M147.248 236.227C151.467 235.125 152.07 237.731 151.869 239.134C151.568 242.04 151.166 242.942 150.463 245.749C153.175 241.74 156.289 235.927 160.809 236.027C161.813 236.027 162.918 236.528 162.918 236.528C166.735 239.034 163.219 244.245 160.306 243.744C158.498 243.443 158.197 242.441 157.996 240.737C157.695 240.036 156.59 240.236 155.987 240.838C152.773 244.345 150.563 249.256 150.563 249.256C150.563 249.256 148.956 253.365 147.248 256.773C147.248 256.773 146.746 257.475 145.541 257.575L141.523 257.475C140.117 257.374 140.518 256.472 140.518 256.472C140.518 256.472 145.34 242.04 145.34 241.238C145.44 240.737 145.34 239.434 144.034 240.136C142.326 241.038 142.226 242.14 140.518 243.443C140.518 243.443 139.614 243.944 139.614 242.842C140.117 241.138 143.733 237.029 147.248 236.227Z" fill="#FBFBFD"/>
</g>
<defs>
<clipPath id="clip0_167_186">
<rect x="128" y="224" width="174" height="45" rx="8" fill="white"/>
</clipPath>
</defs>
</svg>
